<?xml version="1.0" encoding="utf-8"?>
<!-- Generator: Adobe Illustrator 22.1.0, SVG Export Plug-In . SVG Version: 6.00 Build 0)  -->
<svg version="1.1" id="Layer_1" xmlns="http://www.w3.org/2000/svg" xmlns:xlink="http://www.w3.org/1999/xlink" x="0px" y="0px"
	 viewBox="0 0 200 17" style="enable-background:new 0 0 200 17;" xml:space="preserve">
<style type="text/css">
	.st0{fill:#FFFFFF;}
</style>
<g>
	<path class="st0" d="M13.3,14.5c-0.6,0.7-1.5,1.2-2.6,1.6c-1.1,0.4-2.4,0.6-3.7,0.6c-2.1,0-3.7-0.6-5-1.9s-1.9-3-2-5.3l0-1.4
		C0,6.5,0.3,5.1,0.8,4s1.3-2.1,2.4-2.7s2.2-0.9,3.6-0.9c2,0,3.5,0.5,4.6,1.4s1.7,2.3,1.9,4.1H9.6C9.5,4.9,9.2,4.2,8.8,3.8
		S7.7,3.3,6.9,3.3c-1,0-1.7,0.4-2.2,1.2S3.9,6.5,3.9,8v1c0,1.6,0.3,2.8,0.8,3.6c0.5,0.8,1.4,1.2,2.6,1.2c1,0,1.7-0.2,2.2-0.7v-2.5
		H6.8V8h6.5V14.5z"/>
	<path class="st0" d="M24.6,13.5h-5.3l-0.9,3h-4.1l5.8-15.9h3.6l5.9,15.9h-4.1L24.6,13.5z M20.3,10.5h3.4L22,5L20.3,10.5z"/>
	<path class="st0" d="M30.8,16.5V0.6h5.7c2,0,3.6,0.4,4.7,1.1s1.6,1.8,1.6,3.3c0,0.8-0.2,1.5-0.6,2.1s-0.9,1-1.7,1.3
		C41.4,8.6,42,9,42.5,9.6c0.4,0.6,0.7,1.3,0.7,2.2c0,1.6-0.5,2.7-1.5,3.5c-1,0.8-2.4,1.2-4.4,1.2H30.8z M34.6,7.2h2
		c0.8,0,1.4-0.2,1.8-0.5C38.8,6.4,39,6,39,5.4c0-0.7-0.2-1.2-0.6-1.5c-0.4-0.3-1-0.4-1.9-0.4h-1.9V7.2z M34.6,9.7v3.8h2.5
		c0.7,0,1.2-0.2,1.6-0.5c0.4-0.3,0.6-0.8,0.6-1.3c0-1.3-0.7-2-2-2H34.6z"/>
	<path class="st0" d="M51.1,10.8h-2.1v5.6h-3.8V0.6h6.3c1.9,0,3.4,0.4,4.4,1.3c1.1,0.8,1.6,2,1.6,3.5c0,1.1-0.2,2-0.7,2.8
		c-0.4,0.7-1.1,1.3-2.1,1.8l3.3,6.4v0.2h-4.1L51.1,10.8z M49.1,7.9h2.4c0.7,0,1.3-0.2,1.6-0.6c0.4-0.4,0.6-0.9,0.6-1.6
		s-0.2-1.2-0.6-1.6s-0.9-0.6-1.6-0.6h-2.4V7.9z"/>
	<path class="st0" d="M63.9,16.5h-3.8V0.6h3.8V16.5z"/>
	<path class="st0" d="M76.4,9.7h-6v3.8h7.1v2.9h-11V0.6h11v3h-7.1v3.4h6V9.7z"/>
	<path class="st0" d="M82.9,13.5h6.7v2.9H79.1V0.6h3.8V13.5z"/>
	<path class="st0" d="M103.3,11.5c-0.2,1.7-0.8,3-1.8,3.8c-1,0.9-2.4,1.3-4.1,1.3c-1.2,0-2.2-0.3-3.1-0.9s-1.6-1.4-2.1-2.5
		c-0.5-1.1-0.7-2.3-0.8-3.7V7.5c0-1.4,0.2-2.7,0.7-3.8c0.5-1.1,1.2-1.9,2.1-2.5c0.9-0.6,2-0.9,3.2-0.9c1.7,0,3,0.5,4,1.4
		s1.6,2.2,1.7,3.8h-1.4c-0.3-2.7-1.8-4.1-4.4-4.1c-1.4,0-2.6,0.5-3.4,1.6c-0.9,1.1-1.3,2.6-1.3,4.5v1.9c0,1.8,0.4,3.3,1.3,4.4
		s2,1.6,3.4,1.6c1.4,0,2.5-0.3,3.2-1c0.7-0.7,1.2-1.7,1.3-3H103.3z"/>
	<path class="st0" d="M112.5,9.8h-4.6v6.6h-1.4V0.6h5.2c1.7,0,3,0.4,4,1.2c1,0.8,1.4,2,1.4,3.4c0,1-0.3,1.9-0.9,2.7
		s-1.4,1.3-2.4,1.6l4,6.8v0.1h-1.4L112.5,9.8z M107.9,8.7h4.1c1.1,0,2-0.3,2.7-1c0.7-0.6,1-1.5,1-2.5c0-1.1-0.4-2-1.1-2.6
		s-1.7-0.9-3-0.9h-3.8V8.7z"/>
	<path class="st0" d="M129.3,12h-7.2l-1.6,4.5h-1.4l6-15.9h1.3l6,15.9H131L129.3,12z M122.5,10.9h6.4l-3.2-8.7L122.5,10.9z"/>
	<path class="st0" d="M146.6,16.5h-1.3l-9.1-13.6v13.6h-1.4V0.6h1.4l9.2,13.6V0.6h1.3V16.5z"/>
	<path class="st0" d="M150.6,16.5V0.6h4.4c1.3,0,2.5,0.3,3.5,0.9c1,0.6,1.8,1.4,2.4,2.6s0.9,2.4,0.9,3.8v1.5c0,1.4-0.3,2.7-0.9,3.8
		c-0.6,1.1-1.4,1.9-2.4,2.5c-1,0.6-2.2,0.9-3.6,0.9H150.6z M152,1.7v13.6h3c1.7,0,3-0.6,4-1.7c1-1.1,1.5-2.6,1.5-4.5V7.7
		c0-1.8-0.5-3.3-1.5-4.4c-1-1.1-2.3-1.7-3.9-1.7H152z"/>
	<path class="st0" d="M173.6,12h-7.2l-1.6,4.5h-1.4l6-15.9h1.3l6,15.9h-1.4L173.6,12z M166.8,10.9h6.4L170,2.2L166.8,10.9z"/>
	<path class="st0" d="M180.4,15.3h7.9v1.1H179V0.6h1.4V15.3z"/>
	<path class="st0" d="M192.1,15.3h7.9v1.1h-9.2V0.6h1.4V15.3z"/>
</g>
</svg>
